<svg width="281" height="50" viewBox="0 0 281 50" xmlns="http://www.w3.org/2000/svg"><title>SWAT .IO</title><desc>Created with Sketch.</desc><path d="M20.837 49.488c12.808 0 19.105-6.583 19.105-15.312 0-17.816-27.404-12.736-27.404-20.25 0-2.86 2.432-4.72 6.725-4.72 4.866 0 10.017 1.645 13.88 5.222l5.654-7.584C34.074 2.48 27.777.19 20.193.19 8.96.19 2.09 6.772 2.09 14.714c0 17.96 27.477 12.164 27.477 20.464 0 2.79-2.648 5.295-8.3 5.295-6.583 0-11.806-3.005-15.17-6.51l-5.58 7.94c4.508 4.508 11.09 7.585 20.32 7.585zm73.12-.858L107.554.905H96.176l-8.37 34.488L78.788.905h-7.943L61.76 35.393 53.39.905H42.01L55.678 48.63h10.804l8.3-32.77 8.372 32.77h10.804zm59.67 0L135.237.905h-12.735L104.114 48.63h11.52l3.004-8.086h20.464l3.005 8.086h11.52zM136.31 31.6h-14.88l7.44-20.535 7.44 20.535zm40.632 17.03V9.85h13.88V.904H152.76V9.85h13.952v38.78h10.232zm24.872.787c3.148 0 5.796-2.648 5.796-5.796 0-3.147-2.648-5.795-5.796-5.795s-5.796 2.648-5.796 5.796c0 3.15 2.648 5.797 5.796 5.797zm23.352-.787V.905h-10.16V48.63h10.16zm30.45.858c14.383 0 24.9-10.303 24.9-24.685 0-14.382-10.517-24.685-24.9-24.685-14.452 0-24.97 10.303-24.97 24.685 0 14.382 10.518 24.685 24.97 24.685zm0-9.015c-8.87 0-14.524-6.798-14.524-15.67 0-8.944 5.653-15.67 14.525-15.67 8.8 0 14.454 6.726 14.454 15.67 0 8.872-5.652 15.67-14.453 15.67z" fill="#fff"/></svg>